{"title":"Titanic II 2010 720p BRRip x264 Feel-Free","uid":6069358,"size":1928856485,"categoryP":"video","categoryS":"hd___movies","magnet":"?xt=urn:btih:e24514f0146e9f48bc6cdc4ef7c090b0d98b3036&amp;dn=Titanic+II+2010+720p+BRRip+x264+Feel-Free&amp;tr=udp%3A%2F%2Ftracker.openbittorrent.com%3A80&amp;tr=udp%3A%2F%2Fopen.demonii.com%3A1337&amp;tr=udp%3A%2F%2Ftracker.coppersurfer.tk%3A6969&amp;tr=udp%3A%2F%2Fexodus.desync.com%3A6969","seeders":4,"leechers":0,"uploader":"hiest","files":-1,"time":1293546668,"description":"Genre:Action | Adventure \nLanguage:English\nIMDb:http://www.imdb.com/title/tt1640571/\nSource:BluRay DTS x264\nSubtitles:Romana\n\n\nFormat : Matroska\nFile size : 1.79 GiB\nDuration : 1h 29mn\nOverall bit rate : 2 854 Kbps\n\n\nVideo\nFormat settings, CABAC : Yes\nFormat settings, ReFrames : 4 frames\nCodec ID : V_MPEG4/ISO/AVC\nDuration : 1h 29mn\nBit rate : 2 500 Kbps\nWidth : 1 280 pixels\nHeight : 720 pixels\nDisplay aspect ratio : 16:9\nFrame rate mode : Variable\nFrame rate : 23.976 fps\nColor space : YUV\nChroma subsampling : 4:2:0\nBit depth : 8 bits\nScan type : Progressive\nBits/(Pixel*Frame) : 0.113\nStream size : 1.51 GiB (85%)\nWriting library : x264\n\nAudio\nID : 2\nFormat : AC-3\nFormat/Info : Audio Coding 3\nMode extension : CM (complete main)\nCodec ID : A_AC3\nDuration : 1h 29mn\nBit rate mode : Constant\nBit rate : 384 Kbps\nChannel(s) : 6 channels\nChannel positions : Front: L C R, Side: L R, LFE\nSampling rate : 48.0 KHz\nBit depth : 16 bits\nVideo delay : -1mn 5s\nStream size : 247 MiB (13%)\nLanguage : English\n\n\nPlot:\nOn the 100th anniversary of the original voyage, a modern luxury liner christened &quot;Titanic 2,&quot; follows the path of its namesake\n\n\n\n\n\n\n\n\n================================== &lt;a href=&quot;\nhttp://thepiratebay.se/user/hiest&quot; rel=&quot;nofollow&quot; target=&quot;_NEW&quot;&gt;\nhttp://thepiratebay.se/user/hiest&lt;/a&gt;\n==================================","torrent":{"xt":"urn:btih:e24514f0146e9f48bc6cdc4ef7c090b0d98b3036","amp;dn":"Titanic+II+2010+720p+BRRip+x264+Feel-Free","amp;tr":["udp%3A%2F%2Ftracker.openbittorrent.com%3A80","udp%3A%2F%2Fopen.demonii.com%3A1337","udp%3A%2F%2Ftracker.coppersurfer.tk%3A6969","udp%3A%2F%2Fexodus.desync.com%3A6969"],"infoHash":"e24514f0146e9f48bc6cdc4ef7c090b0d98b3036","infoHashBuffer":{"type":"Buffer","data":[226,69,20,240,20,110,159,72,188,108,220,78,247,192,144,176,217,139,48,54]},"announce":[],"urlList":[]}}